<svg xmlns="http://www.w3.org/2000/svg" xmlns:svg="http://www.w3.org/2000/svg" id="Layer_1" width="104" height="31" x="0" y="0" enable-background="new 0 0 37 35" version="1.1" viewBox="0 0 104 31" xml:space="preserve"><metadata id="metadata4833"/><linearGradient id="SVGID_1_" x1="231.895" x2="231.895" y1="-269.555" y2="-301.72" gradientTransform="matrix(1,0,0,-1,-213.5,-268.5)" gradientUnits="userSpaceOnUse"><stop offset="0" style="stop-color:#60efff" id="stop4821"/><stop offset="1" style="stop-color:#1f89c7" id="stop4823"/></linearGradient><g id="g4007" transform="matrix(3.7441453,0,0,3.5294826,-0.93932752,0.52655834)"><path id="path3991" d="m 14.1,2.4 c 0,-0.4 0.2,-0.6 0.6,-0.6 0.4,0 0.6,0.2 0.6,0.6 v 2.8 l 1.4,-1.5 c 0.1,-0.1 0.3,-0.2 0.5,-0.2 0.3,0 0.6,0.2 0.6,0.6 0,0.2 -0.1,0.3 -0.2,0.4 l -0.9,1 1.3,1.7 c 0.1,0.1 0.1,0.3 0.1,0.4 0,0.3 -0.3,0.6 -0.6,0.6 C 17.2,8.2 17,8 16.9,7.9 L 15.7,6.2 15.3,6.6 v 0.9 c 0,0.4 -0.2,0.6 -0.6,0.6 -0.4,0 -0.6,-0.2 -0.6,-0.6 z" class="st1" style="fill:#d7f7ff"/><path id="path3993" d="m 19,1.7 c 0.4,0 0.6,0.3 0.6,0.6 C 19.6,2.7 19.4,3 19,3 18.6,3 18.4,2.7 18.4,2.4 18.3,2 18.6,1.7 19,1.7 c 0,0 0,0 0,0 z m -0.6,2.4 c 0,-0.3 0.1,-0.6 0.6,-0.6 0.5,0 0.6,0.3 0.6,0.6 v 3.4 c 0,0.3 -0.1,0.6 -0.6,0.6 -0.5,0 -0.6,-0.3 -0.6,-0.6 z" class="st1" style="fill:#d7f7ff"/><path id="path3995" d="m 24.3,6.8 c 0,0.5 0.1,0.6 0.1,0.8 0,0.3 -0.3,0.5 -0.6,0.5 -0.5,0 -0.7,-0.3 -0.7,-0.7 -0.5,0.5 -1,0.7 -1.7,0.7 C 20.7,8.1 20,7.6 20,6.8 20,5.8 20.8,5.5 21.7,5.4 L 22.5,5.3 C 22.8,5.3 23,5.2 23,4.8 23,4.4 22.6,4.3 22.2,4.3 21.3,4.3 21.3,5 20.8,5 20.5,5 20.3,4.8 20.3,4.5 c 0,-0.5 0.7,-1.1 2,-1.1 1.2,0 2,0.4 2,1.3 z M 23.1,5.9 C 23,6 22.7,6.1 22.6,6.1 l -0.5,0.1 c -0.5,0.1 -0.8,0.2 -0.8,0.6 0,0.3 0.3,0.5 0.7,0.5 0.7,0 1.1,-0.4 1.1,-0.9 z" class="st1" style="fill:#d7f7ff"/><path id="path3997" d="m 24.9,2.4 c 0,-0.4 0.2,-0.6 0.6,-0.6 0.4,0 0.6,0.2 0.6,0.6 v 5.1 c 0,0.4 -0.2,0.6 -0.6,0.6 -0.4,0 -0.6,-0.2 -0.6,-0.6 z" class="st1" style="fill:#d7f7ff"/><path id="path3999" d="m 27.4,1.7 c 0.4,0 0.6,0.3 0.6,0.6 0,0.4 -0.3,0.6 -0.6,0.6 -0.4,0 -0.6,-0.3 -0.6,-0.6 0,-0.3 0.3,-0.6 0.6,-0.6 0,0 0,0 0,0 z m -0.6,2.4 c 0,-0.3 0.1,-0.6 0.6,-0.6 0.5,0 0.6,0.3 0.6,0.6 v 3.4 c 0,0.3 -0.1,0.6 -0.6,0.6 -0.5,0 -0.6,-0.3 -0.6,-0.6 z" class="st1" style="fill:#d7f7ff"/><path id="path4001" d="M 7.8,0 C 5.4,0 3.5,1.9 3.5,4.3 3.5,6.7 5.4,8.6 7.8,8.6 10.2,8.6 12,6.6 12,4.3 12,2 10.1,0 7.8,0 Z m 0,7.9 c -2,0 -3.6,-1.6 -3.6,-3.6 0,-2 1.6,-3.6 3.6,-3.6 2,0 3.6,1.6 3.6,3.6 0,0 0,0 0,0 0,2 -1.6,3.6 -3.6,3.6 z" class="st1" style="fill:#d7f7ff"/><path id="path4003" d="M 6.3,1 C 4.5,1.8 3.6,4 4.5,5.8 4.9,6.6 5.5,7.3 6.3,7.6 8.1,6 8.3,3.2 6.7,1.3 6.6,1.2 6.4,1.1 6.3,1 Z" class="st2" style="fill:#0093dd"/><path id="path4005" d="m 3.5,4.3 c 0,-1 0.3,-1.9 1,-2.7 C 4.1,1.4 3.7,1.3 3.2,1.3 c -1.6,0 -2.9,1.3 -2.9,3 0,1.7 1.3,3 2.9,3 C 3.6,7.3 4,7.2 4.4,7 3.8,6.2 3.5,5.3 3.5,4.3 Z" class="st2" style="fill:#0093dd"/></g></svg>