<svg xmlns="http://www.w3.org/2000/svg" xmlns:svg="http://www.w3.org/2000/svg" id="SVGRoot" width="27" height="27" version="1.1" viewBox="0 0 27 27"><metadata id="metadata4610"/><g id="layer1"><g id="symbol8619" transform="translate(-430.21073,-74.799835)"><circle style="fill:#fff;fill-rule:evenodd;stroke:#8b8d8f;stroke-width:1" id="circle2046-3" cx="443.709" cy="88.376" r="12.5"/></g><path id="path251" d="m 21.003437,10.936933 c 0,2.934579 -2.37895,5.313495 -5.31352,5.313495 -0.33874,0 -0.66993,-0.03205 -0.99107,-0.09266 l -0.72492,0.815568 a 0.72454114,0.72454133 0 0 1 -0.54156,0.243176 h -1.12378 v 1.207623 c 0,0.400177 -0.3244,0.724571 -0.724571,0.724571 h -1.207629 v 1.20763 c 0,0.40018 -0.32439,0.72457 -0.7245702,0.72457 h -3.38132 c -0.40018,0 -0.72458,-0.32439 -0.72458,-0.72457 v -2.356642 c 0,-0.192165 0.0764,-0.376484 0.21221,-0.51237 L 10.643006,12.60245 c -0.172779,-0.523926 -0.266619,-1.083748 -0.266619,-1.66555 0,-2.9345771 2.37892,-5.3134941 5.3135,-5.3135281 2.94324,-2.9e-5 5.31355,2.370286 5.31355,5.3135571 z m -5.31352,-1.4491728 c 0,0.8003488 0.6488,1.4491438 1.44914,1.4491438 0.80035,0 1.44914,-0.648795 1.44914,-1.4491438 0,-0.8003503 -0.64879,-1.4491453 -1.44914,-1.4491453 -0.80034,0 -1.44914,0.648795 -1.44914,1.4491453 z" style="fill:currentColor;stroke-width:.03019047"/></g></svg>